<mxfile host="app.diagrams.net" modified="2023-02-09T18:52:21.066Z" agent="5.0 (Windows NT 10.0; Win64; x64) AppleWebKit/537.36 (KHTML, like Gecko) Chrome/109.0.0.0 Safari/537.36 Edg/109.0.1518.78" etag="J_NR_veduuXeKZYwI6VB" version="20.8.19" type="github">
  <diagram name="Page-1" id="Bxj_FM-frcXE1fAAi17F">
    <mxGraphModel dx="794" dy="438" grid="1" gridSize="10" guides="1" tooltips="1" connect="1" arrows="1" fold="1" page="1" pageScale="1" pageWidth="850" pageHeight="1100" math="0" shadow="0">
      <root>
        <mxCell id="0" />
        <mxCell id="1" parent="0" />
        <mxCell id="Axyy6Gmf9DKrcOV3SGui-5" style="edgeStyle=orthogonalEdgeStyle;rounded=0;orthogonalLoop=1;jettySize=auto;html=1;entryX=0;entryY=0.5;entryDx=0;entryDy=0;" edge="1" parent="1" source="Axyy6Gmf9DKrcOV3SGui-1" target="Axyy6Gmf9DKrcOV3SGui-2">
          <mxGeometry relative="1" as="geometry" />
        </mxCell>
        <mxCell id="Axyy6Gmf9DKrcOV3SGui-1" value="End-User" style="shape=umlActor;verticalLabelPosition=bottom;verticalAlign=top;html=1;outlineConnect=0;" vertex="1" parent="1">
          <mxGeometry x="130" y="195" width="30" height="60" as="geometry" />
        </mxCell>
        <mxCell id="Axyy6Gmf9DKrcOV3SGui-8" style="edgeStyle=orthogonalEdgeStyle;rounded=0;orthogonalLoop=1;jettySize=auto;html=1;entryX=0;entryY=0.5;entryDx=0;entryDy=0;" edge="1" parent="1" source="Axyy6Gmf9DKrcOV3SGui-2" target="Axyy6Gmf9DKrcOV3SGui-3">
          <mxGeometry relative="1" as="geometry" />
        </mxCell>
        <mxCell id="Axyy6Gmf9DKrcOV3SGui-2" value="Web Server" style="aspect=fixed;perimeter=ellipsePerimeter;html=1;align=center;shadow=0;dashed=0;spacingTop=3;image;image=img/lib/active_directory/web_server.svg;" vertex="1" parent="1">
          <mxGeometry x="240" y="200" width="40" height="50" as="geometry" />
        </mxCell>
        <mxCell id="Axyy6Gmf9DKrcOV3SGui-9" style="edgeStyle=orthogonalEdgeStyle;rounded=0;orthogonalLoop=1;jettySize=auto;html=1;entryX=0;entryY=0.5;entryDx=0;entryDy=0;entryPerimeter=0;" edge="1" parent="1" source="Axyy6Gmf9DKrcOV3SGui-3" target="Axyy6Gmf9DKrcOV3SGui-10">
          <mxGeometry relative="1" as="geometry">
            <mxPoint x="480" y="217" as="targetPoint" />
          </mxGeometry>
        </mxCell>
        <mxCell id="Axyy6Gmf9DKrcOV3SGui-3" value="App Server" style="shape=image;html=1;verticalAlign=top;verticalLabelPosition=bottom;labelBackgroundColor=#ffffff;imageAspect=0;aspect=fixed;image=https://cdn2.iconfinder.com/data/icons/boxicons-logos/24/bxl-spring-boot-128.png" vertex="1" parent="1">
          <mxGeometry x="350" y="195" width="60" height="60" as="geometry" />
        </mxCell>
        <mxCell id="Axyy6Gmf9DKrcOV3SGui-10" value="MySQL" style="verticalLabelPosition=bottom;html=1;verticalAlign=top;align=center;strokeColor=none;fillColor=#00BEF2;shape=mxgraph.azure.mysql_database;" vertex="1" parent="1">
          <mxGeometry x="490" y="200" width="37.5" height="50" as="geometry" />
        </mxCell>
        <mxCell id="Axyy6Gmf9DKrcOV3SGui-11" value="HTTPS" style="text;html=1;strokeColor=none;fillColor=none;align=center;verticalAlign=middle;whiteSpace=wrap;rounded=0;" vertex="1" parent="1">
          <mxGeometry x="170" y="200" width="60" height="30" as="geometry" />
        </mxCell>
        <mxCell id="Axyy6Gmf9DKrcOV3SGui-12" value="HTTP" style="text;html=1;strokeColor=none;fillColor=none;align=center;verticalAlign=middle;whiteSpace=wrap;rounded=0;" vertex="1" parent="1">
          <mxGeometry x="280" y="200" width="60" height="30" as="geometry" />
        </mxCell>
        <mxCell id="Axyy6Gmf9DKrcOV3SGui-13" value="MySQL Protocol" style="text;html=1;strokeColor=none;fillColor=none;align=center;verticalAlign=middle;whiteSpace=wrap;rounded=0;" vertex="1" parent="1">
          <mxGeometry x="420" y="195" width="60" height="30" as="geometry" />
        </mxCell>
      </root>
    </mxGraphModel>
  </diagram>
</mxfile>
